<?xml version="1.0" encoding="UTF-8"?>
<svg id="Layer_2" xmlns="http://www.w3.org/2000/svg" viewBox="0 0 541.47 433.61">
  <defs>
    <style>
      .cls-1 {
        fill: #864bed;
      }

      .cls-2 {
        fill: #b376ff;
      }

      .cls-3 {
        fill: #889a9a;
      }

      .cls-4 {
        fill: #7c3aed;
      }
    </style>
  </defs>
  <g id="Layer_1-2" data-name="Layer_1">
    <g>
      <path class="cls-4" d="M35.31,345.12c-1.62.1-2.67.88-3.18,2.34-.51,1.47-.9,2.57-1.17,3.31-.47,1.33-.08,2.88,1.21,4.69,1.29,1.81,3.01,3.78,5.19,5.93,2.18,2.15,4.52,4.36,7.05,6.62,2.52,2.26,4.74,4.32,6.65,6.13,3.97,4.14,6.59,9.01,7.83,14.73,1.23,5.72.85,12.17-1.23,19.4-2.19,7.61-5.55,14.3-10.1,19.63-4.56,5.33-9.71,9.45-15.45,12.11-5.74,2.67-11.73,4.02-17.96,4.03-6.22.02-12.03-.93-17.4-2.68-5.03-1.63-10.23-4.42-15.61-8.11-5.38-3.69-10.06-7.8-14.05-12.14-3.98-4.34-6.9-8.72-8.7-13.12-1.81-4.41-1.62-8.54.54-12.7.91-1.74,2.34-3.49,4.31-5.27,1.96-1.78,4.15-3.4,6.56-4.88,2.41-1.47,4.9-2.63,7.47-3.47,2.57-.84,4.86-1.15,6.86-.89,1.17.15,2.51.85,4.04,2.12,1.53,1.28,3.18,2.79,4.98,4.54,1.79,1.76,3.67,3.61,5.62,5.55,1.95,1.95,3.89,3.69,5.81,5.19.88.49,1.67.79,2.35.89.84.14,1.91.4,3.2.78,1.29.38,2.35.2,3.17-.55,1.29-1.02,1.78-2.44,1.49-4.21-.3-1.76-.64-3.25-1.03-4.49-2.84-4.42-5.83-7.99-9.02-10.87-3.19-2.87-5.91-5.64-8.18-8.34-2.27-2.69-3.78-5.54-4.53-8.56-.76-3.02.04-6.92,2.22-11.77,2.25-4.98,5.25-9.53,8.97-13.73,3.72-4.19,7.8-7.83,12.33-10.88,4.52-3.05,9.39-5.44,14.7-7.11,5.31-1.67,10.77-2.51,16.48-2.47,8.4.06,15.01,2.12,19.76,6.27,4.73,4.16,6.19,10.74,3.76,20.03-1.36,5.18-4.03,9.46-7.95,12.7-3.93,3.25-8.35,4.75-13.13,4.5-2.56-.13-4.12-1.04-4.69-2.7-.57-1.66-1.03-3.42-1.37-5.26-.35-1.85-.99-3.54-1.91-5.07-.93-1.53-2.9-2.26-5.91-2.21Z"/>
      <path class="cls-4" d="M126.6,343.16c5.68-5.18,11.21-9.33,16.71-12.54,5.5-3.21,11.35-4.78,17.67-4.74,8.28.05,14.77,2.63,19.52,7.97,4.74,5.36,6.73,12.61,5.73,22.31-2.49,24.04-5.85,51.82-9.58,87.15-.67,6.38-2.7,11.6-6.12,15.36-3.42,3.76-7.53,6.62-12.32,8.43-4.79,1.82-9.78,2.73-14.93,2.71-5.15-.02-9.78-.36-13.86-.99-2.49-.39-3.87-2.14-4.13-5.16-.27-3.02-.13-6.2.39-9.52,2-12.76,4.3-24.41,6.83-35.21,2.52-10.8,4.55-21.03,6.08-30.75.14-1.76.44-3.73.9-5.9.46-2.17.69-4.23.71-6.18.01-1.95-.46-3.61-1.42-5-.96-1.39-2.71-2.12-5.25-2.21-1.43-.05-3.06.56-4.91,1.83-1.85,1.27-3.69,2.86-5.53,4.79-1.85,1.93-3.46,4.05-4.85,6.41-1.39,2.36-2.33,4.67-2.81,6.96-1.47,7.04-3.04,14.35-4.69,21.96-1.65,7.61-3.28,15.53-4.89,23.82-1.34,6.91-3.11,12.13-5.32,15.27-2.21,3.15-5.99,5.44-11.34,6.71-3.8.8-8.08,1.59-12.83,2.35-4.75.75-8.9.67-12.42-.16-4.05-.96-6.74-3.95-8.03-8.67-1.29-4.72-1.17-10.07.35-16.01,6.35-21.24,12.88-39.87,18.89-56.89,6.02-17.02,11.62-32.76,16.11-48.05,1.39-4.8,2.74-9.46,4.05-14.02,1.31-4.56,2.66-9.09,4.05-13.63.61-2.19,1.76-4.2,3.47-6.04,1.71-1.83,3.71-3.41,6.02-4.73,2.31-1.32,4.83-2.35,7.56-3.09,2.73-.73,5.34-1.11,7.85-1.1,3.83,0,7,.85,9.5,2.54,2.49,1.69,3.7,4.82,3.49,9.36-.32,7.05-1.56,14.3-3.73,21.88-2.18,7.59-4.51,15.15-6.91,22.79Z"/>
      <path class="cls-4" d="M184.19,430.67c4.09-28.6,8.11-51.86,11.78-72.26,3.67-20.39,7.08-38.07,10.08-55.25.53-3.11,1.54-5.65,3.05-7.64,1.5-1.99,3.47-3.5,5.91-4.53,2.44-1.03,5.2-1.73,8.3-2.1,3.1-.37,6.56-.55,10.39-.55,4.71,0,7.77.63,9.17,1.88,1.4,1.25,2.09,4.01,2.06,8.29-1.78,18.6-3.69,37.42-5.68,59.27-1.99,21.85-3.94,47.17-5.63,79.26-.21,5.1-.52,9.46-.93,12.94-.41,3.48-1.1,6.49-2.08,8.96-.99,2.47-2.44,4.61-4.38,6.37-1.94,1.77-4.65,3.59-8.13,5.43-4.03,2.11-8.63,4.25-13.8,6.39-5.17,2.14-9.85,3.03-13.97,2.66-3.05-.27-5.18-2.36-6.38-6.11-1.2-3.74-1.82-8.23-1.87-13.34-.05-5.11.19-10.39.72-15.79.53-5.4,1-10.12,1.42-14.25-.01.12-.02.24-.04.37Z"/>
      <path class="cls-4" d="M284.48,405.9c.31,9.63,3.09,14.9,8.31,14.8,3.19-.04,6.74-1.06,10.6-3.02,3.86-1.95,7.57-4.12,11.1-6.49,3.53-2.36,6.8-4.45,9.83-6.3,3.02-1.84,5.42-2.78,7.23-2.83,1.65-.05,3.31.66,5,2.13,1.69,1.48,3.18,3.36,4.46,5.66,1.28,2.31,2.38,4.82,3.3,7.57.91,2.74,1.49,5.32,1.7,7.7.47,5.26-.33,10.69-2.47,16.35-2.13,5.66-5.03,11.19-8.72,16.51-3.69,5.33-7.88,10.09-12.57,14.13-4.69,4.05-9.28,6.98-13.7,8.68-6.73,2.7-13.19,4.14-19.31,4.27-8.1.18-15.3-2.12-21.46-6.65-6.16-4.53-11.2-10.43-15.11-17.4-3.92-6.96-6.7-14.84-8.42-23.33-1.72-8.49-2.39-16.89-2.1-25.15.43-12.62,2.24-24.89,5.21-36.77,2.97-11.87,7.01-21.78,12.1-30.37,5.09-8.58,11.22-15.27,18.47-20.5,7.25-5.22,15.66-7.75,25.35-7.76,11.19,0,19.8,2.92,26.06,8.96,6.25,6.08,9.85,14.32,10.79,25.6.31,3.77.57,7.67.76,11.73.2,4.06,0,8.02-.62,11.85-.62,3.83-1.81,7.26-3.58,10.21-1.78,2.95-4.48,5.14-8.13,6.47-7.14,2.45-14.35,4.83-21.63,7.1-7.27,2.28-14.76,4.57-22.48,6.85ZM283.53,378.3c1.91-.4,4.37-.8,7.39-1.21,3.01-.41,5.9-1.21,8.64-2.39,2.74-1.18,5.04-2.92,6.92-5.19,1.87-2.27,2.7-5.52,2.5-9.64-.17-3.58-.87-6.27-2.11-8.17-1.24-1.89-2.7-2.82-4.39-2.81-3.08.01-5.67.92-7.77,2.74-2.11,1.82-3.87,4.15-5.29,7.01-1.42,2.87-2.6,6.05-3.56,9.6-.96,3.56-1.74,6.92-2.32,10.06Z"/>
      <path class="cls-4" d="M392.02,402.22c1.55,9.02,4.99,13.72,10.21,13.26,3.2-.26,6.63-1.44,10.27-3.5,3.64-2.04,7.09-4.26,10.36-6.63,3.26-2.36,6.3-4.44,9.11-6.29,2.81-1.84,5.12-2.8,6.94-2.95,1.65-.13,3.42.41,5.31,1.63,1.89,1.22,3.63,2.8,5.2,4.75,1.58,1.96,2.99,4.09,4.25,6.42,1.25,2.33,2.13,4.53,2.62,6.59,1.08,4.53.88,9.28-.65,14.38-1.53,5.1-3.85,10.17-6.98,15.21-3.13,5.04-6.83,9.7-11.1,13.84-4.26,4.15-8.53,7.35-12.76,9.46-6.42,3.3-12.68,5.49-18.74,6.43-8.03,1.25-15.42.11-22.04-3.35-6.62-3.46-12.3-8.44-17.01-14.67-4.72-6.22-8.45-13.53-11.21-21.59-2.77-8.06-4.51-16.17-5.3-24.23-1.2-12.31-1.03-24.38.41-36.08,1.44-11.7,4.27-21.49,8.4-29.98,4.13-8.48,9.62-15.1,16.43-20.29,6.8-5.17,15.05-7.68,24.77-7.73,11.22-.03,20.05,2.82,26.92,8.65,6.86,5.85,11.38,13.73,13.73,24.26.78,3.52,1.54,7.13,2.26,10.87.72,3.74,1.04,7.36.91,10.87-.13,3.51-.88,6.65-2.29,9.39-1.41,2.74-3.87,4.83-7.38,6.2-6.9,2.55-13.87,5.06-20.9,7.52-7.03,2.46-14.27,4.98-21.72,7.55ZM387.5,376.21c1.86-.44,4.29-.9,7.27-1.39,2.98-.48,5.77-1.33,8.38-2.52,2.6-1.19,4.7-2.9,6.3-5.08,1.6-2.18,2.01-5.25,1.3-9.15-.61-3.38-1.65-5.93-3.13-7.71-1.47-1.78-3.05-2.65-4.75-2.62-3.1.06-5.59.96-7.49,2.74-1.91,1.78-3.39,4.04-4.46,6.81-1.07,2.77-1.87,5.85-2.37,9.27-.51,3.42-.86,6.65-1.04,9.65Z"/>
      <path class="cls-4" d="M486.43,336.49c6.89-8.15,15.09-12.08,24.45-12.2,6.35-.08,12.17,1,17.6,3.18,5.42,2.18,10.34,5.08,14.86,8.67,4.52,3.59,8.63,7.72,12.36,12.4,3.73,4.68,7.01,9.6,9.75,14.82,3.09,5.9,5.4,12.25,6.72,19.36,1.33,7.11,1.14,14.1-.63,21.32-1.76,7.22-5.27,14.21-10.42,20.96-5.15,6.73-12.45,12.06-21.78,14.93-10.37,3.23-21.4,1.2-32.95-6.59-.71,5.95-2.61,10.72-5.68,14.03-3.07,3.3-6.97,5.64-11.71,6.81-11.42,2.92-18.57-2.8-21.41-15.41-2.7-14.16-5.13-27.29-7.19-39.58-2.07-12.28-4.03-23.62-5.74-34.31-1.71-10.69-3.23-20.7-4.4-30.36-1.17-9.65-2.17-18.95-2.82-28.16-.38-5.12.66-9.02,2.9-11.74,2.24-2.71,5.01-4.65,8.23-5.83,3.23-1.18,6.66-1.84,10.27-1.99,3.61-.15,6.67-.22,9.18-.22,3.1,0,5.49.48,7.19,1.44,1.7.96,2.58,2.91,2.73,5.83.06,1.17-.06,2.81-.33,4.92-.26,2.11-.58,4.43-.91,6.97-.34,2.54-.68,5.22-1,8.05-.32,2.83-.49,5.63-.5,8.39-.01,2.04.14,4.2.46,6.47.33,2.27.57,4.88.77,7.85ZM525.07,371.9c-.6-1.04-1.56-2.29-2.9-3.74-1.34-1.45-2.9-2.89-4.7-4.31-1.79-1.42-3.77-2.61-5.92-3.57-2.16-.95-4.42-1.37-6.82-1.25-2.72.14-4.71,1.29-5.99,3.49-1.29,2.2-2.05,4.89-2.28,8.09-.24,3.2-.06,6.69.55,10.47.61,3.79,1.43,7.25,2.47,10.34.29.86,1.04,1.67,2.25,2.42,1.21.76,2.59,1.35,4.14,1.78,1.55.44,3.14.72,4.77.86,1.63.14,2.95.14,3.96,0,5.21-.7,8.95-3.54,11.16-8.17,2.21-4.63,1.92-10.08-.68-16.43Z"/>
    </g>
    <g id="IZaC0x">
      <g>
        <path class="cls-4" d="M258.04,0h6.12c.56.6,1.29.36,1.96.36,2.45,0,4.91-.02,7.36-.07.85-.02,1.76.35,2.54-.29h4.97c.22.59.74.36,1.14.4,4.3.5,8.62.87,12.9,1.51,18.58,2.77,36.1,8.63,52.22,18.35,14.23,8.58,26.27,19.47,34.88,33.83,2.02,3.37,3.73,6.94,5.59,10.41,1,3.08,1.75,6.26,3.04,9.21,6.65,15.17,8.86,30.9,6,47.24-2.82,16.13-10.15,30.14-20.83,42.42-10.33,11.88-22.81,21.01-36.88,28-18.2,9.04-37.48,13.98-57.74,15.24-14.52.9-28.91.15-43.15-2.91-3.8-.82-7.62-1.55-11.36-2.7-10.79-3.3-21.2-7.44-30.99-13.1-13.81-7.99-25.86-17.98-35.38-30.88-2.23-3.02-4.28-6.17-6.11-9.46-9.31-16.64-12.75-34.36-9.81-53.24.4-2.54.56-5.21,1.91-7.53.49.75.34,1.6.35,2.42.03,4.33-.02,8.67.05,13,.04,2.29.27,4.56.59,6.84.21,1.5,1.86,2.34,1.82,3.69-.08,2.61.78,4.87,1.69,7.23.94,2.46,1.62,4.92,3.15,7.22,1.77,2.66,3.2,5.59,5.01,8.25,1.08,1.58,1.51,3.53,2.9,4.9,2.4,2.37,3.74,5.74,6.95,7.34.15.08.28.27.35.44,1.12,2.64,3.71,3.88,5.6,5.77,2.38,2.38,5.49,3.88,8.11,5.95,4.63,3.66,9.04,7.54,14.86,9.32,2.91.89,5.2,3.41,8.55,3.3,1.21-.04,2.29.6,3.4,1.12,2.01.95,4.01,2.26,6.24,2.27,3.68.02,7.08,2.1,10.84,1.28.28-.06.63.08.93.18,3.16,1.05,6.09.91,9.01-1.02,3.61-2.38,4.03-5.03.9-7.83-.43-.38-.82-.8-1.22-1.21-2.11-2.15-4.49-4.09-7.02-5.55-5.91-3.4-11.52-7.19-16.9-11.34-2.61-2.02-4.98-4.37-7.71-6.21-3.54-2.39-6.14-5.7-8.96-8.75-3.67-3.96-5.88-9.02-9.19-13.28-.36-.46-.64-.98-.59-1.58.19-2.46-1.52-4.34-1.99-6.64-.59-2.88-2-5.59-2.63-8.47-1.37-6.23-2.13-12.53-1.16-18.92.5-3.25.17-6.73,1.72-9.68,1.4-2.66,1.34-5.37,1.38-8.15.01-.77.04-1.55.45-2.22,2.11-3.45,4.02-7.06,6.42-10.3,2.9-3.9,5.58-7.95,9.14-11.41,3.17-3.09,6.4-6.2,9.8-8.93,3.87-3.11,7.82-6.23,12.21-8.73,3.91-2.23,7.72-4.7,11.27-7.44,2.16-1.67,4.78-3.04,5.42-6.32.59-3.03-1.19-5.77-4.29-5.89-.84-.03-1.64.19-2.45.12-.47-.04-.83-.31-1.02-.76-.12-.29.09-.63.29-.59,1.45.32,2.28-.92,3.4-1.38,1.94-.79,4.27-.2,5.95-1.77.11-.05.22-.07.34-.07.59.23,1.09.05,1.54-.33,4.79-.92,9.6-1.63,14.47-1.91.62-.04,1.46.29,1.64-.76Z"/>
        <path class="cls-3" d="M387.73,64.51c1.92,1.53,3,3.73,4.41,5.66,1.27,1.75,2.36,3.63,3.41,5.52,2,3.59,4.67,6.73,6.84,10.18,3.66,5.83,7.45,11.58,9.96,18.11,1.93,5.03,4.25,9.92,5.45,15.19,1.24,5.47,2.51,10.99,3.05,16.55.25,2.59,1,5.18.72,7.89-.29,2.71.06,5.48-.08,8.22-.32,6.43-1.37,12.74-2.69,19.05-1.09,5.24-2.77,10.25-4.68,15.2-2.3,5.98-4.89,11.78-8.41,17.23-3.47,5.36-6.87,10.77-10.98,15.64-3.57,4.23-7.08,8.52-11.32,12.19-4.18,3.62-8.26,7.38-12.8,10.54-4.74,3.3-9.41,6.69-14.51,9.49-4.21,2.31-8.24,4.96-12.7,6.75-5.42,2.18-10.69,4.68-16.36,6.27-4.64,1.3-9.11,3.23-13.84,4.25-5.16,1.12-10.31,2.41-15.54,3.07-2.51.32-5.01,1.13-7.71.77-1.16-.15-2.75.41-4.18.57-5.19.59-10.4.85-15.62.77-8.26-.13-16.47-.74-24.67-1.87-5.96-.82-11.76-2.29-17.61-3.56-6.51-1.41-12.83-3.44-19.02-5.81-3.75-1.43-7.42-3.11-11.11-4.68-6.9-2.93-13.21-6.89-19.52-10.81-5.1-3.16-9.81-6.99-14.53-10.74-3.27-2.6-6.45-5.34-9.25-8.46-3.07-3.42-6.04-6.93-8.99-10.45-3.48-4.16-6.66-8.53-9.38-13.25-2.47-4.29-5.02-8.55-6.87-13.14-2.04-5.07-4.41-10.05-5.49-15.46-.91-4.57-2.1-9.06-2.64-13.74-.59-5.06-1.29-10.08-1.23-15.18.04-3.71.4-7.36,1.01-11.03.29-1.77.42-3.66.65-5.49.47-3.77,1.43-7.45,2.31-11.15.59-2.51,1.22-5.02,2.22-7.38,2.18-5.14,4.06-10.43,6.9-15.27,1.57-2.68,2.99-5.45,4.67-8.05,1.38-2.14,2.78-4.26,4.35-6.29,1.97-2.54,3.43-5.46,5.17-8.18,1.58-2.47,3.22-4.9,4.87-7.31.38-.55.75-1.22,1.55-1.32-.92,3-1.56,6.11-2.82,8.96-1.85,4.16-3.57,8.32-4.31,12.84-1.36,2.33-1.51,4.99-1.91,7.53-2.94,18.87.51,36.6,9.81,53.24,1.84,3.29,3.88,6.44,6.11,9.46,9.51,12.9,21.56,22.9,35.38,30.88,9.79,5.66,20.2,9.8,30.99,13.1,3.75,1.14,7.56,1.88,11.36,2.7,14.24,3.06,28.63,3.81,43.15,2.91,20.26-1.26,39.55-6.2,57.74-15.24,14.06-6.99,26.55-16.11,36.88-28,10.67-12.28,18-26.29,20.83-42.42,2.86-16.33.65-32.06-6-47.24-1.29-2.95-2.04-6.13-3.04-9.21Z"/>
        <path class="cls-1" d="M146.43,86.79c.74-4.51,2.46-8.68,4.31-12.84,1.26-2.84,1.9-5.96,2.82-8.96,4.91-10.9,11.43-20.66,20.07-29,7.18-6.92,15.05-12.89,23.81-17.62,4.91-2.66,9.95-5.07,15.14-7.23,8.43-3.52,17.12-5.96,25.97-7.97.49-.11,1-.08,1.51-.11-1.68,1.57-4.01.98-5.95,1.77-1.12.46-1.94,1.7-3.4,1.38-.19-.04-.41.29-.29.59.18.45.55.72,1.02.76.82.07,1.61-.15,2.45-.12,3.1.12,4.88,2.86,4.29,5.89-.64,3.27-3.27,4.65-5.42,6.32-3.56,2.75-7.37,5.21-11.27,7.44-4.38,2.5-8.34,5.62-12.21,8.73-3.4,2.74-6.63,5.84-9.8,8.93-3.56,3.47-6.25,7.51-9.14,11.41-2.4,3.24-4.31,6.85-6.42,10.3-.41.67-.44,1.45-.45,2.22-.04,2.78.02,5.49-1.38,8.15-1.55,2.95-1.23,6.43-1.72,9.68-.97,6.4-.21,12.7,1.16,18.92.63,2.88,2.04,5.59,2.63,8.47.47,2.3,2.17,4.18,1.99,6.64-.05.6.23,1.12.59,1.58,3.31,4.26,5.53,9.32,9.19,13.28,2.82,3.05,5.42,6.35,8.96,8.75,2.72,1.84,5.1,4.2,7.71,6.21,5.38,4.15,10.99,7.93,16.9,11.34,2.53,1.46,4.91,3.4,7.02,5.55.4.41.8.83,1.22,1.21,3.13,2.79,2.71,5.45-.9,7.83-2.92,1.93-5.85,2.07-9.01,1.02-.3-.1-.64-.24-.93-.18-3.75.82-7.16-1.26-10.84-1.28-2.23-.01-4.23-1.32-6.24-2.27-1.11-.52-2.19-1.16-3.4-1.12-3.35.11-5.64-2.4-8.55-3.3-5.82-1.79-10.23-5.67-14.86-9.32-2.63-2.07-5.73-3.57-8.11-5.95-1.89-1.89-4.48-3.13-5.6-5.77-.07-.17-.2-.37-.35-.44-3.21-1.6-4.55-4.97-6.95-7.34-1.39-1.37-1.82-3.32-2.9-4.9-1.81-2.66-3.24-5.59-5.01-8.25-1.53-2.3-2.21-4.76-3.15-7.22-.91-2.36-1.76-4.61-1.69-7.23.04-1.35-1.61-2.19-1.82-3.69-.32-2.27-.55-4.55-.59-6.84-.07-4.33-.03-8.67-.05-13,0-.81.14-1.67-.35-2.42ZM183.04,41.43c-.23.08-.41.17-.59.2-5.96.95-9.23,5.66-12.66,9.73-3.37,4.01-6.24,8.52-8.62,13.28-.55,1.11-.31,2.38-1.14,3.35-1.49,1.74-2.6,3.67-2.59,6.08,0,.49-.03,1.08-.28,1.47-1.94,3.04-1.9,6.55-2.32,9.91-.61,4.86.07,9.77-.05,14.65-.02.9.16,1.74.42,2.62.93,3.1,2.4,6.03,2.94,9.25.35,2.08.84,4.24,1.93,5.92,2.35,3.62,3.37,7.95,6.36,11.21,1.19,1.3,2.26,2.74,3.37,4.13,3.79,4.74,7.33,9.88,14.06,10.84.53.08,1.06.7,1.58.16.49-.52.3-1.22.09-1.82-.23-.65-.57-1.27-.89-1.89-1.15-2.25-2.39-4.46-3.61-6.67-2.24-4.06-3.85-8.46-6.08-12.53-1.67-3.04-1.84-6.56-3.59-9.53-.26-.44-.15-1.12-.16-1.69-.03-.95.02-1.91-.28-2.84-1.32-4.16-1.75-8.48-1.57-12.78.26-6.25.23-12.53,1.92-18.7.93-3.42,1.59-6.88,3.16-10.09.67-1.37.91-2.92,1.42-4.34,1-2.78,1.64-5.69,3.56-8.13,1.1-1.4,2.09-3.1,2.08-5.04,0-1.23.43-2.22,1.13-3.16.45-.61.98-1.2,1.31-1.88.45-.91.24-1.61-.89-1.71Z"/>
        <path class="cls-2" d="M183.04,41.43c1.14.1,1.35.8.89,1.71-.33.68-.86,1.26-1.31,1.88-.7.94-1.14,1.93-1.13,3.16.01,1.93-.98,3.64-2.08,5.04-1.92,2.44-2.57,5.35-3.56,8.13-.51,1.42-.75,2.97-1.42,4.34-1.58,3.21-2.23,6.68-3.16,10.09-1.69,6.17-1.66,12.44-1.92,18.7-.18,4.3.25,8.62,1.57,12.78.3.93.25,1.89.28,2.84.02.57-.1,1.25.16,1.69,1.75,2.97,1.93,6.49,3.59,9.53,2.23,4.07,3.84,8.47,6.08,12.53,1.22,2.21,2.46,4.42,3.61,6.67.32.62.65,1.24.89,1.89.21.59.4,1.3-.09,1.82-.51.55-1.05-.08-1.58-.16-6.72-.97-10.27-6.11-14.06-10.84-1.11-1.39-2.18-2.83-3.37-4.13-2.99-3.26-4.02-7.6-6.36-11.21-1.09-1.67-1.58-3.84-1.93-5.92-.54-3.22-2.01-6.15-2.94-9.25-.26-.87-.45-1.72-.42-2.62.11-4.89-.57-9.79.05-14.65.42-3.36.38-6.87,2.32-9.91.25-.39.28-.98.28-1.47,0-2.41,1.1-4.33,2.59-6.08.83-.97.59-2.24,1.14-3.35,2.38-4.76,5.25-9.27,8.62-13.28,3.43-4.07,6.7-8.78,12.66-9.73.19-.03.36-.12.59-.2Z"/>
      </g>
    </g>
  </g>
</svg>